<svg width="24" height="24" viewBox="0 0 24 24" fill="none" xmlns="http://www.w3.org/2000/svg">
<path d="M15.8023 10.6773C16.0659 10.4137 16.0659 9.98633 15.8023 9.72273C15.5387 9.45912 15.1113 9.45912 14.8477 9.72273L15.8023 10.6773ZM11.5 14.025L11.0227 14.5023C11.2863 14.7659 11.7137 14.7659 11.9773 14.5023L11.5 14.025ZM8.15225 9.72273C7.88864 9.45912 7.46132 9.45912 7.19771 9.72273C6.9341 9.98633 6.9341 10.4137 7.19771 10.6773L8.15225 9.72273ZM14.8477 9.72273L11.0227 13.5478L11.9773 14.5023L15.8023 10.6773L14.8477 9.72273ZM11.9773 13.5478L8.15225 9.72273L7.19771 10.6773L11.0227 14.5023L11.9773 13.5478Z" fill="white"/>
</svg>
